<svg xmlns="http://www.w3.org/2000/svg" viewBox="0 0 300 300"><path d="M73.474 175.943c-5.684-17.531-5.604-34.536-.129-51.596-8.279-1.605-16.151-1.736-24.05-.962-16.544 1.622-31.531 7.066-43.258 19.239-7.98 8.283-8.105 6.646-.039 14.662 18.681 18.564 41.944 21.654 67.476 18.657zm50.867-103.892c8.954-1.092 17.482-2.947 26.01-2.942 8.517.004 17.034 1.87 25.752 2.944 1.913-10.38 1.639-21.295-.574-32.126-3.16-15.464-10.235-28.697-22.759-38.717-1.769-1.415-3.156-1.776-4.856-.062-3.186 3.213-6.803 6.071-9.598 9.587-12.111 15.235-15.748 33.021-14.908 52.016.147 3.324.657 6.631.933 9.3zm174.421 75.146c-17.239-22.08-48.976-27.309-71.532-22.683 5.479 16.94 5.49 33.957-.022 51.021.837.215 1.318.378 1.813.46 9.138 1.515 18.292 1.396 27.41-.044 16.825-2.658 31.293-9.668 42.273-23.118 1.685-2.063 1.75-3.469.058-5.636zM124.626 226.91c-2.112 11.424-1.833 22.339.387 33.169 3.169 15.46 10.235 28.699 22.781 38.696 1.742 1.388 3.127 1.834 4.853.069 3.164-3.234 6.758-6.105 9.585-9.602 10.593-13.103 14.654-28.532 15.002-45.061.118-5.621-.535-11.259-.862-17.397-17.592 5.67-34.498 5.708-51.746.126zm-11.113-3.624c.163-.217.179-.544.301-.938-15.761-8.184-27.709-20.177-36.004-36.158-10.437 7.466-18.91 16.431-25.358 27.258-7.221 12.126-10.513 25.197-9.221 39.361.249 2.728 1.132 4.325 4.113 4.242 4.943-.137 9.974.364 14.818-.38 22.065-3.389 38.314-15.972 51.351-33.385zm109.366-37.35c-8.514 16.383-20.518 28.308-36.338 36.557 4.48 6.756 9.9 12.337 15.907 17.354 14.571 12.167 31.019 18.879 50.346 17.268 2.813-.235 4.301-1.039 4.53-4.197 2.122-29.219-12.628-49.613-34.445-66.982zM187.06 76.724c-.159.213-.169.539-.281.928 15.749 8.216 27.702 20.202 35.977 36.157 10.14-7.12 18.302-15.815 24.687-26.162 7.586-12.295 11.101-25.608 9.909-40.127-.252-3.074-1.292-4.656-4.46-4.584-4.735.108-9.551-.36-14.192.343-22.183 3.357-38.556 15.913-51.64 33.445zM43.626 61.751c2.639 18.644 12.539 33.273 26.163 45.674 2.463 2.242 5.185 4.201 7.983 6.447 8.341-16.089 20.318-28.047 36.316-36.37-7.178-10.113-15.697-18.186-25.826-24.522-12.439-7.781-25.924-11.414-40.666-10.102-2.927.26-4.411 1.355-4.338 4.361.118 4.841-.305 9.753.368 14.512zm-17.84 120.712c-.76-.265-2.324.583-2.966 1.365-5.145 6.268-8.639 13.394-10.891 21.195-.609 2.111-.102 3.228 1.751 3.932 5.778 2.194 11.461 4.739 17.388 6.415 7.051 1.995 6.813 1.456 10.71-4.704 4.919-7.776 10.445-15.168 15.728-22.753-10.516-.137-21.275-1.812-31.72-5.45zm62.79-141.717c8.652 4.483 16.296 10.343 23.775 17.721.179-11.82 1.821-22.592 5.482-33.039.266-.758-.577-2.328-1.358-2.962-6.289-5.108-13.411-8.612-21.195-10.889-2.105-.616-3.245-.137-3.928 1.739-2.33 6.397-5.011 12.703-6.788 19.253-1.473 5.427-1.002 5.579 4.012 8.177zm188.843 142.729c-.583-.701-2.162-1.095-3.107-.879-3.578.819-7.03 2.271-10.632 2.892-7.008 1.207-14.086 2.011-21.413 3.021 7.787 7.821 14.074 16.59 18.881 26.434.363.743 1.764 1.497 2.596 1.41 8.479-.883 16.482-3.371 23.762-7.862.73-.45 1.324-2.093 1.105-2.962-2.059-8.18-5.801-15.568-11.192-22.054zM187.077 44.088c.819 4.489.922 9.11 1.346 13.693.308-.082.548-.073.666-.188 7.736-7.576 16.391-13.834 26.156-18.566.726-.352 1.421-1.795 1.331-2.646-.885-8.372-3.44-16.227-7.625-23.555-.822-1.44-1.653-1.764-3.298-1.31-8.03 2.213-15.254 5.92-21.818 11.036-1.477 1.152-1.388 2.146-.965 3.756 1.549 5.889 3.114 11.795 4.207 17.78zM23.098 116.483c.592.713 2.152 1.136 3.105.937 2.663-.558 5.194-1.79 7.864-2.26 7.937-1.397 15.916-2.557 24.049-3.836-7.671-7.725-14.032-16.56-18.828-26.523-.316-.657-1.653-1.266-2.44-1.184-8.48.885-16.462 3.422-23.76 7.86-.745.453-1.39 2.093-1.173 2.952 2.064 8.174 5.797 15.565 11.183 22.054zm219.308-4.419c11.192.175 21.955 1.813 32.386 5.486.713.251 2.172-.454 2.747-1.155 5.277-6.437 8.871-13.747 11.131-21.764.518-1.84-.02-2.633-1.525-3.483-7.25-4.097-15.005-6.618-23.266-7.475-.896-.093-2.299.739-2.808 1.554-2.338 3.743-4.161 7.831-6.696 11.424-3.677 5.21-7.807 10.1-11.969 15.413zm-26.978 149.018c-9.963-4.802-18.779-11.192-27.219-19.579-.205 11.864-1.87 22.716-5.562 33.225-.229.651.427 1.982 1.07 2.515 6.495 5.386 13.867 9.137 22.046 11.183.871.218 2.518-.384 2.968-1.119 4.469-7.291 6.957-15.295 7.869-23.774.086-.789-.517-2.135-1.172-2.451zm-102.701-12.004c-.428-2.271-.381-4.632-.492-6.14l-28.397 19.975c.693 8.162 3.351 16.597 7.877 24.484.93 1.621 1.968 1.423 3.416 1.021 7.812-2.169 14.86-5.796 21.285-10.73 1.449-1.113 1.746-2.05 1.319-3.937-1.853-8.184-3.454-16.426-5.008-24.673z"/><path d="M150 79.682c-38.812 0-70.275 31.482-70.275 70.318s31.463 70.318 70.275 70.318c38.812 0 70.275-31.482 70.275-70.318S188.812 79.682 150 79.682zM111.903 188.12c-8.217-8.222-13.451-18.632-15.162-29.917h21.863c.886 16.053 4.339 30.398 9.446 41.06-5.943-2.653-11.409-6.401-16.147-11.143zm6.7-46.324H96.74c1.712-11.285 6.946-21.695 15.162-29.917a53.842 53.842 0 0 1 16.146-11.143c-5.106 10.662-8.559 25.007-9.445 41.06zm40.063 46.955c-3.616 9.009-7.342 12.399-8.666 13.168-1.324-.768-5.05-4.159-8.666-13.168-3.421-8.521-5.597-19.151-6.306-30.547h29.943c-.708 11.396-2.884 22.025-6.305 30.547zm-23.638-46.955c.708-11.396 2.885-22.026 6.306-30.547 3.616-9.009 7.342-12.399 8.666-13.168 1.324.768 5.05 4.159 8.666 13.168 3.421 8.521 5.597 19.151 6.306 30.547h-29.944zm53.069 46.324a53.842 53.842 0 0 1-16.146 11.143c5.107-10.661 8.56-25.006 9.446-41.06h21.863c-1.712 11.286-6.946 21.696-15.163 29.917zm-6.7-46.324c-.886-16.053-4.339-30.398-9.446-41.06 5.941 2.653 11.408 6.402 16.146 11.143 8.217 8.222 13.451 18.632 15.162 29.917h-21.862z"/></svg>